# xmcd
#
# Track frame offsets: 
#        150
#        12913
#        26171
#        46365
#        61621
#        75223
#        90007
#        103772
#        119150
#        132313
#        150943
#
# Disc length: 2212 seconds
#
# Revision: 0
# Processed by: cddbd v1.5.2PL0 Copyright (c) Steve Scherf et al.
# Submitted via: ExactAudioCopy v0.95b4
#
DISCID=7708a20b
DTITLE=Yasmin Reese - Living Gospel
DYEAR=1900
DGENRE=Gospel
TTITLE0=Amazing Grace
TTITLE1=Nobody knows the Trouble I've seen
TTITLE2=Oh Happy Day
TTITLE3=When Lights Go Down
TTITLE4=Rock My Soul
TTITLE5=Go Down Moses
TTITLE6=Swing Low Sweet Chariot
TTITLE7=Joshua Fit The Battle Of Jericho
TTITLE8=He's Got The Whole World In His Hands
TTITLE9=You And I
TTITLE10=Amen
EXTD=
EXTT0=
EXTT1=
EXTT2=
EXTT3=
EXTT4=
EXTT5=
EXTT6=
EXTT7=
EXTT8=
EXTT9=
EXTT10=
PLAYORDER=
